<svg width="75" height="8" viewBox="0 0 75 8" fill="none" xmlns="http://www.w3.org/2000/svg">
<path d="M1 4C1.60208 3 3.70937 1 5.51562 1C7.32187 1 9.20567 3.08586 10.0312 4C11.0347 5.11114 12.7406 7 14.5469 7C16.3531 7 18.1594 5 19.0625 4" stroke="#E29578" stroke-width="2" stroke-linecap="round"/>
<path d="M19.0625 4C19.6646 3 21.7719 1 23.5781 1C25.3844 1 27.2682 3.08586 28.0937 4C29.0972 5.11114 30.8031 7 32.6094 7C34.4156 7 36.2219 5 37.125 4" stroke="#E29578" stroke-width="2" stroke-linecap="round"/>
<path d="M37.125 4C37.7271 3 39.8344 1 41.6406 1C43.4469 1 45.3307 3.08586 46.1562 4C47.1597 5.11114 48.8656 7 50.6719 7C52.4781 7 54.2844 5 55.1875 4" stroke="#E29578" stroke-width="2" stroke-linecap="round"/>
<path d="M55.1875 4C55.7896 3 57.8969 1 59.7031 1C61.5094 1 63.3932 3.08586 64.2187 4C65.2222 5.11114 66.9281 7 68.7344 7C70.5406 7 72.3469 5 73.25 4" stroke="#E29578" stroke-width="2" stroke-linecap="round"/>
</svg>
